<?xml version="1.0" standalone="no"?>
<!DOCTYPE svg PUBLIC "-//W3C//DTD SVG 20010904//EN"
 "http://www.w3.org/TR/2001/REC-SVG-20010904/DTD/svg10.dtd">
<svg version="1.0" xmlns="http://www.w3.org/2000/svg"
 width="665.000000pt" height="1000.000000pt" viewBox="0 0 665.000000 1000.000000"
 preserveAspectRatio="xMidYMid meet">

<g transform="translate(0.000000,1000.000000) scale(0.100000,-0.100000)"
fill="#000000" stroke="none">
<path d="M2425 8090 c-3 -5 -2 -10 4 -10 5 0 13 5 16 10 3 6 2 10 -4 10 -5 0
-13 -4 -16 -10z"/>
<path d="M2520 8082 c0 -10 -4 -22 -9 -27 -10 -11 -31 -104 -31 -135 0 -11 14
-33 30 -50 30 -31 35 -45 24 -74 -7 -18 -39 -22 -49 -6 -5 8 -11 8 -20 0 -8
-6 -27 -13 -44 -15 -24 -3 -31 0 -31 13 0 13 -4 11 -16 -7 -13 -18 -15 -37
-11 -82 3 -32 2 -61 -3 -64 -4 -3 -19 5 -34 16 -26 21 -28 20 -30 -16 -1 -13
-9 -21 -26 -23 -14 -2 -29 -8 -35 -13 -14 -14 -51 -11 -66 7 -8 10 -25 14 -53
12 -36 -3 -41 0 -46 22 -7 30 -17 15 -15 -22 1 -27 41 -68 64 -68 12 0 14 -20
5 -44 -10 -26 -42 -18 -66 15 l-23 31 -5 -29 c-3 -16 -14 -32 -26 -37 -12 -5
-32 -30 -46 -55 -18 -35 -30 -47 -52 -49 -15 -2 -34 2 -41 8 -12 10 -17 7 -25
-14 -5 -15 -9 -32 -7 -39 1 -8 -9 -11 -30 -10 -25 2 -36 -3 -52 -26 -12 -16
-21 -36 -21 -45 0 -22 -13 -20 -44 9 -30 27 -30 27 -14 -12 17 -43 19 -60 5
-71 -16 -14 -81 13 -71 29 4 8 3 9 -4 5 -8 -4 -16 3 -22 19 -7 17 -16 25 -27
23 -26 -5 -28 -37 -3 -63 15 -16 20 -30 15 -44 -6 -21 -25 -29 -25 -11 0 6 -8
10 -19 10 -16 0 -17 -5 -11 -42 5 -23 16 -49 27 -58 10 -9 23 -25 29 -35 6
-12 22 -19 40 -19 16 -1 31 -5 32 -11 2 -5 8 -18 13 -27 19 -36 -39 -103 -71
-83 -6 4 -29 8 -51 10 -23 3 -48 10 -55 16 -8 7 -16 10 -18 8 -11 -14 -30 -77
-28 -91 2 -9 -2 -19 -8 -23 -15 -9 -40 13 -34 30 3 7 1 16 -5 20 -7 4 -11 -4
-11 -19 0 -16 -6 -26 -15 -26 -8 0 -15 -7 -15 -15 0 -8 9 -15 20 -15 11 0 20
-6 20 -14 0 -24 15 -26 56 -10 30 11 46 13 67 5 33 -13 34 -31 4 -59 -18 -17
-28 -20 -57 -13 -56 14 -71 22 -80 47 -8 21 -16 23 -82 26 -72 3 -73 3 -76 31
-2 16 2 35 9 43 9 12 9 18 0 27 -17 17 -31 -8 -31 -59 0 -52 15 -65 79 -68 56
-2 91 -26 91 -61 0 -28 -20 -88 -33 -96 -15 -10 3 -30 22 -24 10 3 31 -6 50
-19 l33 -25 34 20 c43 24 56 24 71 0 13 -20 7 -61 -9 -61 -5 0 -14 -13 -19
-30 -13 -37 -24 -38 -41 -3 -7 14 -19 29 -26 31 -11 3 -12 0 -3 -16 10 -18 6
-52 -5 -52 -18 0 -54 35 -49 48 4 12 3 13 -10 2 -8 -7 -15 -19 -15 -27 0 -23
31 -63 49 -63 9 0 29 -11 45 -25 16 -14 35 -25 43 -25 17 0 17 -18 -2 -36 -9
-9 -23 -12 -38 -8 -14 3 -28 1 -31 -5 -4 -6 -2 -11 3 -11 22 0 10 -26 -23 -52
-26 -21 -35 -37 -40 -71 -8 -55 -1 -74 32 -82 15 -4 33 -11 39 -17 18 -14 17
-68 -1 -68 -7 0 -16 -9 -19 -20 -3 -13 -14 -20 -29 -20 -40 -1 -59 -40 -52
-105 4 -30 11 -58 16 -61 13 -9 58 24 58 42 0 11 6 15 20 11 11 -3 20 -1 20 4
0 5 7 9 16 9 12 0 14 -4 6 -12 -5 -7 -12 -38 -16 -68 -5 -45 -3 -62 14 -92 11
-21 20 -47 20 -59 0 -11 4 -18 9 -15 13 9 42 -4 39 -18 -5 -20 49 -65 72 -59
11 3 28 -1 38 -10 9 -8 32 -18 50 -22 23 -5 32 -12 32 -26 0 -25 43 -69 68
-69 10 0 27 -9 37 -20 10 -11 25 -20 34 -20 18 0 71 70 71 94 0 8 5 18 10 21
6 3 10 15 10 26 0 10 5 19 10 19 14 0 13 27 -1 32 -13 4 -23 109 -14 145 3 14
13 23 25 23 15 0 19 -8 22 -42 3 -39 6 -43 31 -46 21 -3 29 2 36 20 5 13 7 26
4 30 -5 10 43 22 55 14 6 -3 30 3 53 14 24 11 54 20 67 20 20 0 22 5 22 49 0
39 4 50 18 54 30 7 -47 34 -120 42 -54 6 -65 10 -61 23 5 13 0 14 -37 8 -53
-8 -70 -21 -70 -52 0 -12 -5 -26 -12 -30 -8 -5 -9 0 -6 14 4 12 1 25 -5 30
-40 25 4 70 89 91 73 17 134 1 184 -49 3 -3 18 -11 33 -19 65 -34 86 -118 48
-190 -14 -25 -44 -176 -43 -216 1 -16 -4 -35 -9 -42 -6 -6 -8 -21 -4 -32 3
-10 1 -22 -5 -26 -16 -10 -12 -35 5 -28 9 3 30 35 47 72 27 57 32 78 34 156 1
50 9 112 18 139 10 32 14 63 10 85 -10 51 -42 101 -66 101 -14 0 -18 5 -14 16
5 13 1 15 -21 10 l-28 -7 24 19 c19 16 22 22 13 39 -6 11 -9 23 -6 25 11 11
-26 27 -98 42 -109 22 -142 42 -146 87 -3 29 3 44 27 72 17 19 31 42 31 50 0
9 4 18 9 21 5 3 7 32 4 65 -4 38 -2 61 6 65 6 4 11 17 11 29 0 43 21 97 43
112 16 10 32 12 60 6 21 -5 39 -5 43 0 3 5 16 9 29 9 13 0 26 4 29 8 8 14 69
12 91 -2 18 -12 24 -11 40 1 17 12 18 15 5 23 -8 5 -11 12 -7 16 4 4 15 1 24
-8 14 -15 19 -15 54 4 22 11 42 24 45 29 9 15 44 10 44 -6 0 -18 12 -19 28 -3
9 9 12 7 12 -9 0 -21 2 -21 28 -8 15 8 35 12 44 9 9 -3 20 2 26 12 8 14 12 12
31 -12 20 -26 29 -29 72 -27 28 1 49 -2 49 -8 0 -6 5 -7 11 -4 5 4 19 -1 29
-10 11 -10 28 -15 40 -12 12 3 24 -1 29 -11 9 -16 12 -16 40 1 33 19 54 16 45
-8 -4 -9 -24 -15 -52 -17 l-47 -3 34 -18 c18 -10 42 -16 53 -14 13 4 18 1 15
-7 -6 -15 40 -19 49 -5 10 16 24 9 24 -12 0 -16 5 -20 28 -17 22 2 28 -1 30
-22 2 -14 9 -31 15 -38 7 -9 7 -16 -1 -24 -17 -17 -15 -28 4 -28 8 0 20 -13
25 -30 8 -22 17 -30 35 -30 25 0 32 -14 14 -25 -6 -4 -24 5 -42 20 -38 32 -55
22 -40 -27 6 -18 14 -54 18 -81 l6 -47 -26 10 c-23 8 -26 7 -26 -10 0 -11 -5
-20 -10 -20 -6 0 -8 -10 -4 -24 3 -13 1 -27 -5 -30 -17 -11 -151 39 -151 56 0
4 -4 8 -10 8 -19 0 -10 -17 15 -28 15 -7 25 -20 25 -32 0 -15 7 -20 28 -20 21
0 45 -15 87 -55 54 -50 85 -68 85 -47 0 4 -5 13 -11 19 -7 7 -9 19 -6 28 6 14
9 14 32 -1 14 -9 25 -23 25 -30 0 -18 39 -18 54 0 6 7 25 16 41 19 17 4 24 4
18 1 -19 -8 -16 -32 7 -61 24 -30 26 -61 5 -69 -18 -7 -20 -60 -4 -70 8 -5 10
1 7 19 -5 25 6 56 16 46 11 -11 16 -183 6 -189 -24 -15 -60 -379 -42 -427 11
-31 26 -158 24 -213 -1 -23 -8 -40 -23 -51 -12 -9 -19 -21 -15 -27 9 -15 -3
-39 -23 -45 -9 -2 -23 -22 -30 -45 -8 -23 -19 -43 -26 -46 -7 -2 -15 -18 -18
-34 -9 -45 -249 -282 -285 -282 -6 0 -15 -6 -19 -13 -9 -14 -74 -47 -93 -47
-6 0 -26 -11 -43 -24 -18 -14 -60 -38 -93 -53 -60 -29 -65 -29 -210 -28 -82 1
-158 5 -169 9 -11 4 -8 0 6 -8 15 -8 36 -36 48 -62 24 -49 56 -189 67 -291 l7
-62 -64 -69 c-35 -38 -98 -96 -140 -130 -114 -90 -323 -296 -365 -359 -85
-128 -173 -284 -308 -548 -139 -270 -169 -337 -291 -658 -95 -251 -105 -290
-215 -907 -22 -124 -51 -279 -65 -345 -49 -235 -115 -605 -115 -640 0 -3 10
-5 23 -5 35 0 47 -19 47 -73 0 -41 3 -48 16 -43 9 3 18 6 20 6 3 0 0 9 -6 21
-24 45 28 103 75 85 17 -6 36 -46 28 -58 -2 -5 -22 -8 -43 -8 -31 0 -38 -3
-34 -15 4 -9 19 -15 41 -15 30 0 34 -2 23 -14 -10 -13 7 -16 122 -20 73 -3
164 -7 202 -10 43 -3 75 -1 83 6 21 17 15 29 -12 22 -53 -13 -88 62 -46 100
13 12 30 16 57 13 l39 -4 0 -74 c0 -74 0 -74 28 -77 15 -2 59 4 97 12 38 9 91
16 117 17 35 1 41 3 24 8 -13 3 -29 14 -35 24 -9 15 -7 21 8 33 11 8 28 14 38
14 33 0 20 29 -14 32 l-33 4 29 8 c44 13 61 -3 64 -63 3 -43 6 -51 23 -51 17
0 19 7 19 60 0 76 18 79 22 3 2 -34 8 -58 16 -61 9 -3 12 18 12 82 0 70 3 86
15 86 12 0 15 -16 15 -84 0 -92 3 -96 73 -96 31 0 33 6 12 34 -8 11 -15 28
-15 38 0 24 39 58 66 58 33 0 39 -18 8 -22 -57 -7 -57 -69 0 -76 37 -5 33 -22
-6 -22 -64 0 -20 -9 72 -14 52 -3 145 -13 205 -22 100 -16 280 -18 1904 -21
l1794 -3 -7 152 c-4 84 -12 160 -17 170 -5 9 -9 38 -9 63 0 39 -3 46 -17 43
-14 -2 -19 -15 -21 -51 -3 -39 -6 -47 -23 -47 -15 0 -19 7 -19 38 0 45 -13 67
-34 59 -11 -5 -16 -19 -16 -52 0 -38 -3 -45 -20 -45 -18 0 -20 7 -20 65 0 65
0 65 28 63 15 -1 33 1 40 6 6 4 20 2 31 -3 12 -7 29 -8 43 -2 22 8 23 13 24
117 2 151 17 223 91 422 93 253 107 317 108 492 l0 145 -53 168 c-33 104 -57
202 -63 255 -5 48 -16 137 -24 197 -8 61 -19 162 -26 225 -19 197 -63 324
-164 482 -112 174 -442 438 -672 536 -85 37 -588 276 -707 336 -74 38 -94 53
-115 88 -14 24 -58 86 -97 138 -39 52 -98 136 -132 186 -36 54 -72 95 -89 103
-15 8 -59 16 -98 18 -100 6 -121 17 -129 61 -4 26 -1 41 12 55 9 10 24 40 32
65 17 54 33 59 59 18 l19 -28 7 41 c8 49 19 58 50 41 22 -12 28 -10 61 19 23
21 43 31 55 28 11 -3 26 2 35 10 13 14 13 17 -3 35 -23 25 -7 52 33 56 16 1
39 8 52 14 17 9 25 9 34 0 24 -24 118 50 118 94 0 15 6 24 15 24 8 0 21 13 29
29 14 26 14 30 1 41 -23 19 -18 33 11 27 22 -4 28 0 37 24 12 31 26 36 45 17
9 -9 18 -9 36 0 27 12 38 58 33 137 l-2 39 63 14 c40 9 62 19 62 28 0 8 -7 14
-15 14 -23 0 -19 76 6 116 20 33 20 34 1 34 -38 0 -62 59 -40 100 28 53 52 82
75 91 13 5 23 17 23 27 0 20 29 52 47 52 5 0 24 7 40 15 23 11 33 25 37 50 4
21 13 35 22 35 11 0 34 36 34 55 0 10 -45 45 -76 60 -23 11 -36 26 -42 49 -6
19 -20 44 -32 56 -24 24 -22 43 6 48 10 2 29 13 41 24 21 20 21 20 27 0 4 -11
13 -23 21 -25 8 -4 11 -14 8 -27 -5 -17 -2 -21 12 -19 11 2 22 17 26 34 7 25
4 34 -21 58 -17 16 -35 46 -41 67 -7 22 -22 43 -36 51 -29 15 -26 43 4 47 20
3 63 49 63 66 0 12 -38 5 -50 -9 -18 -22 -43 -19 -37 5 3 10 -1 27 -9 37 -7
10 -14 28 -14 40 0 12 -15 44 -32 70 -28 40 -33 57 -32 100 l2 53 -38 10 c-21
6 -41 17 -44 26 -19 50 13 101 57 90 28 -7 52 10 61 41 5 16 2 23 -12 27 -11
4 -31 28 -45 55 -26 46 -26 50 -12 90 l14 41 -34 0 c-57 0 -95 74 -65 129 6
13 5 24 -4 36 -19 26 -39 10 -31 -26 5 -24 4 -28 -9 -23 -9 3 -16 13 -16 21 0
12 -8 14 -34 10 -39 -6 -63 13 -58 45 2 13 -3 18 -22 18 -14 0 -26 2 -26 5 0
15 73 155 81 155 15 0 28 44 17 55 -6 7 -26 -8 -58 -42 -35 -38 -50 -49 -59
-40 -17 17 -13 34 9 40 25 7 26 37 1 37 -10 0 -24 6 -30 14 -9 11 -7 15 9 19
11 3 20 13 20 22 0 11 -5 15 -15 11 -9 -3 -36 1 -61 10 -58 20 -94 11 -116
-26 -11 -20 -22 -28 -32 -24 -20 8 -20 28 -1 44 8 7 15 22 15 34 0 12 -3 16
-8 10 -13 -21 -68 -26 -107 -10 -59 25 -83 21 -106 -19 -17 -29 -27 -35 -54
-35 -19 0 -45 4 -60 10 -24 9 -25 12 -19 60 4 34 3 55 -6 65 -16 20 -34 19
-26 0 7 -18 -16 -30 -40 -21 -15 6 -15 8 0 24 12 14 13 21 4 30 -8 8 -8 15 -1
24 6 7 8 28 6 46 l-5 33 -24 -22 c-16 -15 -31 -20 -50 -16 -15 2 -42 -2 -61
-9 -32 -14 -34 -14 -43 12 -9 22 -13 24 -25 14 -19 -16 -40 0 -49 35 -4 14
-11 25 -16 25 -6 0 -10 9 -10 21 0 11 -4 17 -10 14 -5 -3 -10 -22 -10 -41 0
-40 -17 -44 -48 -11 -14 15 -22 36 -22 58 0 34 0 34 -50 36 -40 2 -50 0 -50
-13 0 -28 -42 -53 -87 -54 -46 0 -50 5 -28 34 21 28 19 36 -10 36 -14 0 -37 7
-50 16 -14 9 -33 13 -45 9 -23 -7 -28 12 -5 21 16 7 21 49 6 58 -5 4 -12 -7
-16 -24 -6 -27 -11 -30 -43 -30 -33 -1 -35 -2 -19 -14 9 -7 17 -18 17 -23 0
-15 -45 -53 -63 -53 -10 0 -22 -11 -26 -24 -11 -28 -36 -39 -61 -26 -19 10
-31 64 -36 155 -4 82 -8 89 -45 97 -45 9 -53 -2 -33 -44 22 -48 9 -114 -23
-111 -18 2 -21 -5 -29 -80 -7 -66 -12 -82 -26 -85 -12 -2 -25 9 -39 32 -18 31
-28 37 -81 47 -54 11 -62 15 -74 45 -11 27 -21 100 -24 178 0 5 -7 3 -15 -4
-21 -17 -35 -4 -35 35 0 21 -6 35 -16 39 -23 9 -24 8 -24 -12z m33 -140 c19
-20 13 -32 -13 -32 -22 0 -44 25 -35 40 10 15 30 12 48 -8z m-413 -347 c0 -8
-4 -15 -9 -15 -13 0 -22 16 -14 24 11 11 23 6 23 -9z m2120 -105 c13 -9 13
-11 1 -19 -17 -11 -38 -4 -45 15 -6 16 21 19 44 4z m243 -96 c3 -3 3 -12 0
-19 -6 -17 -33 -8 -33 11 0 14 21 19 33 8z m-2593 -64 c0 -5 -5 -10 -11 -10
-5 0 -7 5 -4 10 3 6 8 10 11 10 2 0 4 -4 4 -10z m-323 -216 c-3 -3 -12 -4 -19
-1 -8 3 -5 6 6 6 11 1 17 -2 13 -5z m3228 -153 c3 -5 1 -12 -5 -16 -5 -3 -10
1 -10 9 0 18 6 21 15 7z m-3332 -162 c-17 -17 -37 -1 -22 17 8 10 15 12 23 4
7 -7 7 -13 -1 -21z m3277 -109 c0 -11 -7 -20 -15 -20 -15 0 -21 21 -8 33 12
13 23 7 23 -13z m-3300 -330 c0 -5 -4 -10 -10 -10 -5 0 -10 5 -10 10 0 6 5 10
10 10 6 0 10 -4 10 -10z m1930 -192 c0 -10 -4 -18 -10 -18 -5 0 -10 -7 -10
-15 0 -20 -10 -19 -25 2 -13 17 -9 53 6 53 5 0 9 8 9 18 1 15 2 15 15 -2 8
-11 15 -28 15 -38z m60 -159 c0 -5 -7 -9 -15 -9 -8 0 -15 7 -15 15 0 9 6 12
15 9 8 -4 15 -10 15 -15z m-1325 -236 c1 -17 7 -43 15 -57 7 -14 11 -29 7 -32
-12 -12 -78 18 -94 43 -17 25 -16 26 16 55 39 35 56 32 56 -9z m89 -14 c-3 -5
-10 -7 -15 -3 -5 3 -7 10 -3 15 3 5 10 7 15 3 5 -3 7 -10 3 -15z m1630 -316
c8 -19 -10 -34 -31 -26 -16 6 -17 15 -1 31 16 16 25 15 32 -5z m93 -64 c-3
-10 0 -20 6 -22 14 -4 1 -36 -18 -43 -26 -11 -47 15 -39 50 9 42 11 45 35 39
14 -4 19 -12 16 -24z m-87 1 c0 -11 -4 -20 -9 -20 -5 0 1 -19 14 -42 40 -74
40 -85 4 -103 -41 -22 -93 -22 -125 0 -24 16 -26 21 -20 64 3 25 13 51 22 58
10 7 14 19 10 29 -5 13 -1 15 18 12 15 -3 27 0 30 8 3 8 17 14 31 14 18 0 25
-5 25 -20z m-337 -862 c12 10 19 7 39 -20 21 -29 25 -45 26 -122 2 -49 7 -95
13 -102 6 -7 9 -18 8 -26 -1 -7 2 -24 8 -38 9 -22 13 -69 17 -183 1 -17 8 -29
19 -33 11 -3 16 -12 13 -20 -4 -10 3 -14 22 -15 18 0 22 -3 12 -7 -14 -7 -77
-46 -175 -111 -22 -14 -96 -67 -165 -116 -297 -216 -676 -469 -690 -460 -6 4
-8 11 -4 16 3 5 9 7 13 4 5 -2 15 3 24 13 22 25 87 157 87 178 0 30 -62 -38
-100 -110 -19 -35 -43 -68 -55 -73 -11 -5 -14 -8 -7 -6 8 2 12 -3 10 -9 -3 -7
-14 -14 -26 -16 -26 -4 -29 -17 -7 -30 13 -7 11 -12 -12 -33 -25 -21 -26 -22
-9 -1 19 22 19 23 -2 45 -14 15 -18 27 -12 36 4 8 6 20 3 27 -3 7 2 44 10 81
23 101 29 190 19 268 -5 39 -6 75 -1 80 8 11 -4 180 -17 230 -5 22 -3 25 20
25 29 0 35 14 10 24 -8 3 -13 10 -9 16 3 5 -8 28 -25 52 -22 29 -29 49 -25 65
3 13 1 23 -4 23 -5 0 -11 8 -13 18 -5 17 4 19 116 20 82 1 150 7 211 21 142
33 187 52 320 140 22 15 59 35 83 46 24 10 50 28 57 38 8 11 25 21 38 23 13 1
45 16 72 33 44 28 49 29 60 14 10 -14 16 -15 28 -5z m1357 -4013 c0 -44 0 -44
26 -35 46 18 64 -2 64 -70 0 -53 -2 -60 -20 -60 -17 0 -20 7 -20 44 0 48 -8
60 -34 50 -11 -4 -16 -19 -16 -50 0 -37 -3 -44 -20 -44 -19 0 -20 7 -20 105 0
98 1 105 20 105 17 0 20 -7 20 -45z m-79 6 c11 -13 19 -32 19 -42 0 -31 -36
-59 -75 -59 -33 0 -35 -2 -35 -35 0 -31 -3 -35 -25 -35 l-25 0 0 101 0 101 61
-4 c49 -4 66 -9 80 -27z m779 16 c30 -15 39 -66 16 -90 -20 -20 -20 -27 4 -57
26 -33 25 -40 -4 -40 -17 0 -31 11 -46 35 -12 19 -26 35 -31 35 -5 0 -9 -16
-9 -35 0 -31 -3 -35 -25 -35 l-25 0 0 100 0 100 48 0 c26 0 58 -6 72 -13z
m-350 -37 c0 -13 7 -20 20 -20 11 0 20 -7 20 -15 0 -8 -9 -15 -20 -15 -16 0
-20 -7 -20 -31 0 -22 5 -32 20 -36 24 -6 27 -31 4 -40 -8 -3 -26 -1 -40 5 -20
10 -24 19 -24 57 0 25 -4 45 -10 45 -5 0 -10 7 -10 15 0 8 5 15 10 15 6 0 10
9 10 20 0 13 7 20 20 20 13 0 20 -7 20 -20z m-97 -37 c27 -25 22 -78 -9 -102
-35 -28 -69 -26 -99 4 -72 71 32 166 108 98z m276 4 c41 -34 30 -97 -21 -118
-59 -24 -119 25 -104 85 12 47 83 66 125 33z m354 -4 c27 -25 22 -78 -9 -102
-15 -12 -37 -21 -49 -21 -33 0 -75 37 -75 66 0 73 78 106 133 57z m170 0 c27
-25 22 -78 -9 -102 -15 -12 -37 -21 -49 -21 -33 0 -75 37 -75 66 0 73 78 106
133 57z m-4689 -254 c-1 -19 -2 -55 -3 -81 -2 -86 -21 -52 -21 38 0 64 3 85
13 81 7 -2 11 -18 11 -38z m61 -41 c-1 -53 -6 -83 -13 -86 -9 -3 -12 21 -12
82 0 64 3 86 13 86 10 0 13 -21 12 -82z m167 55 c21 -19 24 -76 6 -90 -7 -6
-34 -11 -60 -11 -39 0 -48 3 -54 20 -10 34 45 77 76 58 8 -5 10 -18 6 -33 -7
-28 8 -46 18 -21 18 46 -7 84 -54 84 -20 0 -35 -8 -46 -25 -35 -53 -10 -110
50 -118 29 -4 29 -4 -6 -5 -75 -4 -108 78 -55 136 25 27 91 30 119 5z m540 5
c-9 -9 -15 -9 -24 0 -9 9 -7 12 12 12 19 0 21 -3 12 -12z m-265 -41 c6 -4 14
-3 18 3 9 14 41 12 53 -3 17 -20 21 -107 5 -107 -8 0 -13 13 -13 38 0 45 -13
67 -34 59 -11 -5 -16 -19 -16 -52 0 -33 -4 -45 -15 -45 -11 0 -15 12 -15 44 0
25 -5 48 -12 52 -16 10 -38 -25 -38 -63 0 -18 -4 -33 -10 -33 -6 0 -10 26 -10
59 l0 59 38 -2 c20 -1 43 -5 49 -9z m608 -1 c11 -8 18 -26 18 -46 0 -38 -23
-60 -64 -60 -30 0 -59 31 -59 62 0 45 66 73 105 44z m130 4 c6 -5 17 -5 25 0
39 25 70 -4 70 -66 0 -32 -4 -44 -15 -44 -11 0 -15 12 -15 44 0 25 -5 48 -12
52 -16 10 -38 -25 -38 -63 0 -49 -17 -40 -23 12 -5 52 -10 60 -32 52 -10 -5
-15 -20 -15 -52 0 -33 -4 -45 -15 -45 -12 0 -15 13 -15 58 l0 58 38 1 c20 1
42 -3 47 -7z m-357 -98 c2 -7 -3 -12 -12 -12 -9 0 -16 7 -16 16 0 17 22 14 28
-4z"/>
<path d="M4700 470 c0 -32 2 -33 38 -24 25 7 30 39 6 48 -33 13 -44 6 -44 -24z"/>
<path d="M5500 475 c0 -20 5 -25 24 -25 30 0 42 16 26 35 -21 25 -50 19 -50
-10z"/>
<path d="M5040 426 c-27 -33 18 -72 48 -42 13 13 14 20 6 34 -15 23 -38 26
-54 8z"/>
<path d="M5324 426 c-3 -8 -4 -23 -2 -33 5 -25 51 -25 56 0 7 36 -42 65 -54
33z"/>
<path d="M5670 426 c-27 -33 18 -72 48 -42 13 13 14 20 6 34 -15 23 -38 26
-54 8z"/>
<path d="M5840 426 c-27 -33 18 -72 48 -42 13 13 14 20 6 34 -15 23 -38 26
-54 8z"/>
<path d="M1381 162 c-5 -10 -6 -24 -2 -31 6 -10 12 -7 25 10 9 13 16 27 16 31
0 15 -29 8 -39 -10z"/>
<path d="M2280 155 c-18 -21 -4 -65 20 -65 27 0 44 34 30 60 -13 24 -33 26
-50 5z"/>
<path d="M2370 7830 c20 -13 33 -13 25 0 -3 6 -14 10 -23 10 -15 0 -15 -2 -2
-10z"/>
<path d="M1955 7549 c-4 -6 -17 -14 -29 -19 -18 -8 -17 -9 12 -9 26 -1 32 3
32 19 0 22 -5 25 -15 9z"/>
<path d="M1270 6801 c0 -27 13 -33 36 -16 21 15 19 19 -13 29 -19 6 -23 3 -23
-13z"/>
<path d="M2596 6571 c-12 -5 -15 -10 -9 -14 6 -4 16 0 23 8 14 17 13 17 -14 6z"/>
<path d="M3210 6352 c0 -5 7 -16 16 -23 14 -12 16 -11 13 5 -4 20 -29 35 -29
18z"/>
<path d="M2916 6043 c-1 -2 -47 -5 -102 -7 -109 -5 -159 -19 -174 -46 -14 -27
-13 -28 23 -30 17 0 59 -2 92 -4 33 -1 79 3 102 9 23 7 44 11 47 8 2 -3 24 -2
47 2 l42 7 -23 18 c-24 18 -24 18 23 13 46 -6 62 6 35 24 -12 7 -106 12 -112
6z"/>
<path d="M3025 5860 c3 -5 11 -10 16 -10 6 0 7 5 4 10 -3 6 -11 10 -16 10 -6
0 -7 -4 -4 -10z"/>
<path d="M2805 5850 c-3 -5 -2 -10 4 -10 5 0 13 5 16 10 3 6 2 10 -4 10 -5 0
-13 -4 -16 -10z"/>
<path d="M3056 5843 c-4 -4 -38 -6 -76 -4 -86 4 -170 -13 -199 -40 -34 -32
-18 -33 37 -2 42 23 52 26 66 14 9 -7 16 -22 16 -32 0 -10 7 -33 16 -52 15
-31 19 -33 66 -34 28 0 45 3 38 7 -21 13 4 19 42 11 57 -13 83 5 84 57 1 36
-3 46 -26 62 -29 21 -52 25 -64 13z m-92 -64 c-3 -5 -10 -7 -15 -3 -5 3 -7 10
-3 15 3 5 10 7 15 3 5 -3 7 -10 3 -15z m114 -16 c2 -12 -4 -23 -14 -27 -22 -8
-23 -6 -17 27 6 31 26 31 31 0z"/>
<path d="M1275 5770 c3 -5 8 -10 11 -10 2 0 4 5 4 10 0 6 -5 10 -11 10 -5 0
-7 -4 -4 -10z"/>
<path d="M2666 5362 c5 -4 26 -20 46 -35 20 -15 39 -37 41 -49 3 -18 5 -16 5
7 2 35 -4 45 -40 68 -27 17 -71 25 -52 9z"/>
<path d="M1867 5283 c-3 -10 -4 -36 -3 -58 1 -30 5 -41 20 -43 15 -3 18 0 13
19 -4 13 -7 41 -7 62 0 38 -15 51 -23 20z"/>
<path d="M2550 5205 c-23 -12 -23 -14 -7 -21 13 -4 26 0 40 15 25 25 7 29 -33
6z"/>
<path d="M2228 5132 c-51 -52 -52 -69 0 -182 11 -25 15 -58 13 -111 -3 -81 6
-110 43 -141 42 -35 56 -13 31 46 -6 14 -3 24 12 36 20 16 20 17 3 51 -28 53
-34 103 -17 118 9 7 21 11 29 10 27 -3 48 1 48 11 0 5 -6 7 -14 4 -9 -3 -17 3
-21 15 -5 17 -15 21 -50 21 -24 0 -47 6 -52 13 -8 14 -5 57 6 72 7 9 14 75 9
75 -2 -1 -20 -17 -40 -38z"/>
<path d="M2460 5156 c-6 -9 -10 -21 -8 -28 3 -8 9 -4 17 10 15 28 9 39 -9 18z"/>
<path d="M2840 4939 c0 -7 -10 -9 -24 -7 -14 3 -31 1 -38 -3 -9 -6 -3 -9 17
-9 48 0 62 -14 45 -44 -14 -28 -25 -32 -35 -16 -9 14 -25 12 -25 -3 0 -7 -19
-19 -42 -27 -39 -14 -43 -18 -46 -52 -4 -44 15 -51 48 -18 11 11 24 20 30 20
5 0 24 17 42 37 18 20 45 48 60 63 26 25 26 25 8 48 -19 23 -40 29 -40 11z"/>
<path d="M1106 155 c-4 -11 2 -15 24 -15 22 0 28 4 24 15 -4 8 -14 15 -24 15
-10 0 -20 -7 -24 -15z"/>
<path d="M1534 156 c-11 -29 1 -61 23 -64 24 -4 38 25 28 58 -7 23 -43 27 -51
6z"/>
<path d="M1883 123 c-21 -8 -15 -33 7 -33 13 0 20 7 20 20 0 20 -5 23 -27 13z"/>
</g>
</svg>
